<?xml version="1.0" encoding="UTF-8"?>
<svg xmlns="http://www.w3.org/2000/svg" viewBox="2.5770391403057147E-5 64.99999999999989 1279.9998779296875 734.9999450885683" preserveAspectRatio="none">
  <g>
    <defs>
      <path id="s-Rect_1-d1224" d="M2.5770391403057147E-5 64.99999999999989 L1279.9999131944523 64.99999999999989 L1279.9999131944523 798.6628177179914 L2.5770391403057147E-5 798.6628177179914 Z "></path>
    </defs>
    <g style="mix-blend-mode:normal">
      <use xmlns:xlink="http://www.w3.org/1999/xlink" xlink:href="#s-Rect_1-d1224" fill="#E1E7E6" fill-opacity="1.0"></use>
    </g>
  </g>
  <g>
    <defs>
      <path id="s-Path_1-d1224" d="M2.5770391403057147E-5 563.890716048234 L30.57780085885508 567.8035993358048 C61.15557594731876 571.5941607078647 122.31112612424612 579.4199272830065 183.18223622202328 581.9877172922029 C244.19555550868208 584.6778292169104 304.7822255273091 582.2322864911839 365.79556651535484 582.8436721726155 C426.666654911745 583.455057854047 487.8222050886724 587.123371942637 548.6932934850626 587.123371942637 C609.7066561744953 587.123371942637 670.2932827903484 583.455057854047 731.3066454797811 581.3763316107713 C792.1777338761713 579.4199272830065 853.3332840530986 578.9307888850446 914.2043724494888 580.6426986458698 C975.2177351389216 582.2322864911839 1035.8043617547746 585.9006005797737 1096.8177244442074 595.4382022836994 C1157.6888128405976 605.0981259031362 1218.844363017525 620.5050152223976 1249.4221381059886 628.3307817975392 L1279.9999131944523 636.0342264571698 L1279.9999131944523 799.8855890808547 L1249.4221381059886 799.8855890808547 C1218.844363017525 799.8855890808547 1157.6888128405976 799.8855890808547 1096.8177244442074 799.8855890808547 C1035.8043617547746 799.8855890808547 975.2177351389216 799.8855890808547 914.2043724494888 799.8855890808547 C853.3332840530986 799.8855890808547 792.1777338761713 799.8855890808547 731.3066454797811 799.8855890808547 C670.2932827903484 799.8855890808547 609.7066561744953 799.8855890808547 548.6932934850626 799.8855890808547 C487.8222050886724 799.8855890808547 426.666654911745 799.8855890808547 365.79556651535484 799.8855890808547 C304.7822255273091 799.8855890808547 244.19555550868208 799.8855890808547 183.18223622202328 799.8855890808547 C122.31112612424612 799.8855890808547 61.15557594731876 799.8855890808547 30.57780085885508 799.8855890808547 L2.5770391403057147E-5 799.8855890808547 Z "></path>
    </defs>
    <g style="mix-blend-mode:normal">
      <use xmlns:xlink="http://www.w3.org/1999/xlink" xlink:href="#s-Path_1-d1224" fill="#2079FF" fill-opacity="1.0"></use>
    </g>
  </g>
  <g>
    <defs>
      <path id="s-Path_2-d1224" d="M2.5770391403057147E-5 644.1978611580065 L30.57780085885508 643.5864754765748 C61.15557594731876 642.9750897951432 122.31112612424612 641.7523184322799 183.18223622202328 640.2849778704357 C244.19555550868208 638.9399592241025 304.7822255273091 637.2280494632773 365.79556651535484 642.3637041137115 C426.666654911745 647.4993587641458 487.8222050886724 659.2379339948171 548.6932934850626 652.7572606980498 C609.7066561744953 646.2765874012824 670.2932827903484 621.3320217460542 731.3066454797811 612.1612365245793 C792.1777338761713 602.9904513031044 853.3332840530986 609.5934465153828 914.2043724494888 623.0439315068793 C975.2177351389216 636.4944164983758 1035.8043617547746 656.7923912690904 1096.8177244442074 664.984974326683 C1157.6888128405976 673.1775573842755 1218.844363017525 669.0201048977236 1249.4221381059886 667.0637005699589 L1279.9999131944523 664.984974326683 L1279.9999131944523 799.489824241648 L1249.4221381059886 799.489824241648 C1218.844363017525 799.489824241648 1157.6888128405976 799.489824241648 1096.8177244442074 799.489824241648 C1035.8043617547746 799.489824241648 975.2177351389216 799.489824241648 914.2043724494888 799.489824241648 C853.3332840530986 799.489824241648 792.1777338761713 799.489824241648 731.3066454797811 799.489824241648 C670.2932827903484 799.489824241648 609.7066561744953 799.489824241648 548.6932934850626 799.489824241648 C487.8222050886724 799.489824241648 426.666654911745 799.489824241648 365.79556651535484 799.489824241648 C304.7822255273091 799.489824241648 244.19555550868208 799.489824241648 183.18223622202328 799.489824241648 C122.31112612424612 799.489824241648 61.15557594731876 799.489824241648 30.57780085885508 799.489824241648 L2.5770391403057147E-5 799.489824241648 Z "></path>
    </defs>
    <g style="mix-blend-mode:normal">
      <use xmlns:xlink="http://www.w3.org/1999/xlink" xlink:href="#s-Path_2-d1224" fill="#A861DE" fill-opacity="1.0"></use>
    </g>
  </g>
  <g>
    <defs>
      <path id="s-Path_3-d1224" d="M2.5770391403057147E-5 688.7277752277639 L30.57780085885508 682.0025327320157 C61.15557594731876 675.2772902362674 122.31112612424612 661.8268052447709 183.18223622202328 659.3812625190442 C244.19555550868208 656.9357197933177 304.7822255273091 665.4951193333609 365.79556651535484 670.1416355858332 C426.666654911745 674.9104737538166 487.8222050886724 675.6441067187181 548.6932934850626 673.6877023909533 C609.7066561744953 671.6089761476774 670.2932827903484 666.7178906962242 731.3066454797811 661.4599887623201 C792.1777338761713 656.0797649129051 853.3332840530986 650.4550464965503 914.2043724494888 649.5990916161377 C975.2177351389216 648.7431367357251 1035.8043617547746 652.900589222277 1096.8177244442074 655.1015627490226 C1157.6888128405976 657.3025362757685 1218.844363017525 657.7916746737301 1249.4221381059886 657.9139219572 L1279.9999131944523 658.1584911561808 L1279.9999131944523 799.9999692483259 L1249.4221381059886 799.9999692483259 C1218.844363017525 799.9999692483259 1157.6888128405976 799.9999692483259 1096.8177244442074 799.9999692483259 C1035.8043617547746 799.9999692483259 975.2177351389216 799.9999692483259 914.2043724494888 799.9999692483259 C853.3332840530986 799.9999692483259 792.1777338761713 799.9999692483259 731.3066454797811 799.9999692483259 C670.2932827903484 799.9999692483259 609.7066561744953 799.9999692483259 548.6932934850626 799.9999692483259 C487.8222050886724 799.9999692483259 426.666654911745 799.9999692483259 365.79556651535484 799.9999692483259 C304.7822255273091 799.9999692483259 244.19555550868208 799.9999692483259 183.18223622202328 799.9999692483259 C122.31112612424612 799.9999692483259 61.15557594731876 799.9999692483259 30.57780085885508 799.9999692483259 L2.5770391403057147E-5 799.9999692483259 Z "></path>
    </defs>
    <g style="mix-blend-mode:normal">
      <use xmlns:xlink="http://www.w3.org/1999/xlink" xlink:href="#s-Path_3-d1224" fill="#DA4BAF" fill-opacity="1.0"></use>
    </g>
  </g>
  <g>
    <defs>
      <path id="s-Path_4-d1224" d="M2.5770391403057147E-5 707.810920383655 L30.57780085885508 710.2564631093817 C61.15557594731876 712.7020058351083 122.31112612424612 717.5930912865616 183.18223622202328 722.1173602555641 C244.19555550868208 726.5193073090555 304.7822255273091 730.6767597956073 365.79556651535484 723.9515172998591 C426.666654911745 717.2262748041109 487.8222050886724 699.6183373260626 548.6932934850626 699.6183373260626 C609.7066561744953 699.6183373260626 670.2932827903484 717.2262748041109 731.3066454797811 720.405450494739 C792.1777338761713 723.7069481008782 853.3332840530986 712.7020058351083 914.2043724494888 710.2564631093817 C975.2177351389216 707.810920383655 1035.8043617547746 713.9247771979716 1096.8177244442074 714.5361628794033 C1157.6888128405976 715.1475485608349 1218.844363017525 710.2564631093817 1249.4221381059886 707.810920383655 L1279.9999131944523 705.3653776579284 L1279.9999131944523 799.5187725984039 L1249.4221381059886 799.5187725984039 C1218.844363017525 799.5187725984039 1157.6888128405976 799.5187725984039 1096.8177244442074 799.5187725984039 C1035.8043617547746 799.5187725984039 975.2177351389216 799.5187725984039 914.2043724494888 799.5187725984039 C853.3332840530986 799.5187725984039 792.1777338761713 799.5187725984039 731.3066454797811 799.5187725984039 C670.2932827903484 799.5187725984039 609.7066561744953 799.5187725984039 548.6932934850626 799.5187725984039 C487.8222050886724 799.5187725984039 426.666654911745 799.5187725984039 365.79556651535484 799.5187725984039 C304.7822255273091 799.5187725984039 244.19555550868208 799.5187725984039 183.18223622202328 799.5187725984039 C122.31112612424612 799.5187725984039 61.15557594731876 799.5187725984039 30.57780085885508 799.5187725984039 L2.5770391403057147E-5 799.5187725984039 Z "></path>
    </defs>
    <g style="mix-blend-mode:normal">
      <use xmlns:xlink="http://www.w3.org/1999/xlink" xlink:href="#s-Path_4-d1224" fill="#EB497E" fill-opacity="1.0"></use>
    </g>
  </g>
  <g>
    <defs>
      <path id="s-Path_5-d1224" d="M2.5770391403057147E-5 766.5686391515105 L30.57780085885508 765.3458677886473 C61.15557594731876 764.123096425784 122.31112612424612 761.6775537000573 183.18223622202328 757.0310374475849 C244.19555550868208 752.2621992796015 304.7822255273091 745.4147095003834 365.79556651535484 743.9473689385393 C426.666654911745 742.480028376695 487.8222050886724 746.6374808632468 548.6932934850626 747.98249950958 C609.7066561744953 749.4498400714242 670.2932827903484 748.2270687085609 731.3066454797811 748.2270687085609 C792.1777338761713 748.2270687085609 853.3332840530986 749.4498400714242 914.2043724494888 751.2839971157191 C975.2177351389216 753.1181541600141 1035.8043617547746 755.5636968857407 1096.8177244442074 755.1968804032899 C1157.6888128405976 754.7077420053282 1218.844363017525 751.5285663147 1249.4221381059886 749.816656553875 L1279.9999131944523 748.2270687085609 L1279.9999131944523 799.58346594882 L1249.4221381059886 799.58346594882 C1218.844363017525 799.58346594882 1157.6888128405976 799.58346594882 1096.8177244442074 799.58346594882 C1035.8043617547746 799.58346594882 975.2177351389216 799.58346594882 914.2043724494888 799.58346594882 C853.3332840530986 799.58346594882 792.1777338761713 799.58346594882 731.3066454797811 799.58346594882 C670.2932827903484 799.58346594882 609.7066561744953 799.58346594882 548.6932934850626 799.58346594882 C487.8222050886724 799.58346594882 426.666654911745 799.58346594882 365.79556651535484 799.58346594882 C304.7822255273091 799.58346594882 244.19555550868208 799.58346594882 183.18223622202328 799.58346594882 C122.31112612424612 799.58346594882 61.15557594731876 799.58346594882 30.57780085885508 799.58346594882 L2.5770391403057147E-5 799.58346594882 Z "></path>
    </defs>
    <g style="mix-blend-mode:normal">
      <use xmlns:xlink="http://www.w3.org/1999/xlink" xlink:href="#s-Path_5-d1224" fill="#E55C54" fill-opacity="1.0"></use>
    </g>
  </g>
</svg>
